<?xml version="1.0" encoding="UTF-8"?>
<svg id="Layer_1" xmlns="http://www.w3.org/2000/svg" viewBox="0 0 250 150">
  <defs>
    <style>
      .cls-1 {
        stroke: #172f5d;
        stroke-width: 5px;
      }

      .cls-1, .cls-2 {
        fill: none;
        stroke-linecap: round;
        stroke-miterlimit: 10;
      }

      .cls-3 {
        font-family: ElzaRoundVariableRoman-Medium, 'Elza Round Variable';
        font-size: 24px;
        font-variation-settings: 'wght' 500;
        font-weight: 500;
      }

      .cls-3, .cls-4 {
        fill: #7fbfc4;
      }

      .cls-5, .cls-6 {
        fill: #172f5d;
      }

      .cls-2 {
        stroke: #e0e0e0;
        stroke-width: 4px;
      }

      .cls-6 {
        font-family: ElzaRoundVariableRoman-Bold, 'Elza Round Variable';
        font-size: 27px;
        font-variation-settings: 'wght' 700;
        font-weight: 700;
      }

      .cls-7 {
        letter-spacing: 0em;
      }

      .cls-8 {
        letter-spacing: -.02em;
      }

      .cls-9 {
        letter-spacing: -.01em;
      }

      .cls-10 {
        letter-spacing: 0em;
      }

      .cls-11 {
        fill: #b3d9dc;
      }

      .cls-12 {
        letter-spacing: 0em;
      }

      .cls-13 {
        letter-spacing: 0em;
      }
    </style>
  </defs>
  <text class="cls-3" transform="translate(5.86 91.57)"><tspan class="cls-8" x="0" y="0">r</tspan><tspan class="cls-9" x="8.64" y="0">e</tspan><tspan class="cls-10" x="22.01" y="0">s</tspan><tspan class="cls-13" x="34.06" y="0">e</tspan><tspan x="47.66" y="0">a</tspan><tspan class="cls-8" x="60.74" y="0">r</tspan><tspan class="cls-12" x="69.38" y="0">c</tspan><tspan class="cls-7" x="82.22" y="0">her</tspan></text>
  <text class="cls-6" transform="translate(192.1 90.93)"><tspan x="0" y="0">NE</tspan></text>
  <g>
    <polygon class="cls-11" points="161.94 65.89 143.96 83.63 149.58 93.37 161.94 65.89"/>
    <polygon class="cls-4" points="161.94 65.89 134.12 77.47 143.96 83.63 161.94 65.89"/>
  </g>
  <path class="cls-2" d="M169.06,52.5s6.44.88,9.08,9.29"/>
  <path class="cls-2" d="M179.98,68.13s.66.52.3,1.95"/>
  <path class="cls-5" d="M192,69c0-16.02-12.98-29-29-29s-29,12.98-29,29c0,1.42.1,2.81.3,4.18l5.87-1.47c-.12-.89-.17-1.79-.17-2.71,0-12.7,10.3-23,23-23s23,10.3,23,23-10.3,23-23,23c-2.74,0-5.37-.48-7.81-1.37l-1.44,2.88c-.03.05-.07.09-.09.15l-9.71,19.4c-.65,1.29-.12,2.86,1.17,3.51l5.34,2.67c1.29.65,2.86.12,3.51-1.17l9.71-19.4c.11-.22.18-.45.22-.69,15.61-.47,28.11-13.26,28.11-28.98Z"/>
  <line class="cls-1" x1="180.5" y1="97.5" x2="226.5" y2="97.5"/>
</svg>