<?xml version="1.0" encoding="UTF-8"?>
<svg id="Layer_1" xmlns="http://www.w3.org/2000/svg" viewBox="0 0 150 150">
  <defs>
    <style>
      .cls-1 {
        fill: #172f5d;
      }

      .cls-2 {
        fill: #90a0a6;
        font-family: ElzaRoundVariableRoman-Regular, 'Elza Round Variable';
        font-size: 9px;
        font-variation-settings: 'wght' 400;
      }

      .cls-3 {
        fill: none;
        stroke: #e0e0e0;
        stroke-linecap: round;
        stroke-miterlimit: 10;
        stroke-width: 4px;
      }

      .cls-4 {
        fill: #7fbfc4;
      }

      .cls-5 {
        fill: #b3d9dc;
      }
    </style>
  </defs>
  <g>
    <polygon class="cls-5" points="75.94 67.89 57.96 85.63 63.58 95.37 75.94 67.89"/>
    <polygon class="cls-4" points="75.94 67.89 48.12 79.47 57.96 85.63 75.94 67.89"/>
  </g>
  <path class="cls-3" d="M83.06,54.5s6.44.88,9.08,9.29"/>
  <path class="cls-3" d="M93.98,70.13s.66.52.3,1.95"/>
  <path class="cls-1" d="M106,71c0-16.02-12.98-29-29-29s-29,12.98-29,29c0,1.42.1,2.81.3,4.18l5.87-1.47c-.12-.89-.17-1.79-.17-2.71,0-12.7,10.3-23,23-23s23,10.3,23,23-10.3,23-23,23c-2.74,0-5.37-.48-7.81-1.37l-1.44,2.88c-.03.05-.07.09-.09.15l-9.71,19.4c-.65,1.29-.12,2.86,1.17,3.51l5.34,2.67c1.29.65,2.86.12,3.51-1.17l9.71-19.4c.11-.22.18-.45.22-.69,15.61-.47,28.11-13.26,28.11-28.98Z"/>
  <text class="cls-2" transform="translate(42.34 69.1) rotate(-82.89)"><tspan x="0" y="0">O</tspan></text>
  <text class="cls-2" transform="translate(43.2 62.65) rotate(-73.53)"><tspan x="0" y="0">n</tspan></text>
  <text class="cls-2" transform="translate(44.55 57.99) rotate(-65.3)"><tspan x="0" y="0">b</tspan></text>
  <text class="cls-2" transform="translate(46.69 53.3) rotate(-56.89)"><tspan x="0" y="0">o</tspan></text>
  <text class="cls-2" transform="translate(49.39 49.16) rotate(-48.95)"><tspan x="0" y="0">a</tspan></text>
  <text class="cls-2" transform="translate(52.46 45.69) rotate(-42.56)"><tspan x="0" y="0">r</tspan></text>
  <text class="cls-2" transform="translate(54.52 43.69) rotate(-36.02)"><tspan x="0" y="0">d</tspan></text>
  <text class="cls-2" transform="translate(58.76 40.7) rotate(-30.26)"><tspan x="0" y="0">i</tspan></text>
  <text class="cls-2" transform="translate(60.33 39.68) rotate(-24.65)"><tspan x="0" y="0">n</tspan></text>
  <text class="cls-2" transform="translate(64.73 37.64) rotate(-16.35)"><tspan x="0" y="0">g</tspan></text>
  <text class="cls-2" transform="translate(69.76 36.25) rotate(-10.69)"><tspan x="0" y="0"> </tspan></text>
  <text class="cls-2" transform="translate(71.27 35.91) rotate(-6.22)"><tspan x="0" y="0">-</tspan></text>
  <text class="cls-2" transform="translate(75.1 35.54) rotate(-1.7)"><tspan x="0" y="0"> </tspan></text>
  <text class="cls-2" transform="translate(76.62 35.35) rotate(4.76)"><tspan x="0" y="0">N</tspan></text>
  <text class="cls-2" transform="translate(82.81 35.91) rotate(13.65)"><tspan x="0" y="0">a</tspan></text>
  <text class="cls-2" transform="translate(87.12 36.94) rotate(20.75)"><tspan x="0" y="0">v</tspan></text>
  <text class="cls-2" transform="translate(91.22 38.55) rotate(25.95)"><tspan x="0" y="0">i</tspan></text>
  <text class="cls-2" transform="translate(92.93 39.28) rotate(31.8)"><tspan x="0" y="0">g</tspan></text>
  <text class="cls-2" transform="translate(97.31 41.99) rotate(39.94)"><tspan x="0" y="0">a</tspan></text>
  <text class="cls-2" transform="translate(100.78 44.93) rotate(46.41)"><tspan x="0" y="0">t</tspan></text>
  <text class="cls-2" transform="translate(103.04 47.34) rotate(50.73)"><tspan x="0" y="0">i</tspan></text>
  <text class="cls-2" transform="translate(104.28 48.72) rotate(56.38)"><tspan x="0" y="0">o</tspan></text>
  <text class="cls-2" transform="translate(107.06 52.88) rotate(64.49)"><tspan x="0" y="0">n</tspan></text>
  <text class="cls-2" transform="translate(109.11 57.35) rotate(69.85)"><tspan x="0" y="0"> </tspan></text>
  <text class="cls-2" transform="translate(109.7 58.8) rotate(74.36)"><tspan x="0" y="0">-</tspan></text>
  <text class="cls-2" transform="translate(110.7 62.53) rotate(78.92)"><tspan x="0" y="0"> </tspan></text>
  <text class="cls-2" transform="translate(111.09 64.01) rotate(84.57)"><tspan x="0" y="0">E</tspan></text>
  <text class="cls-2" transform="translate(111.57 69.2) rotate(92.4)"><tspan x="0" y="0">x</tspan></text>
  <text class="cls-2" transform="translate(111.43 73.43) rotate(100.15)"><tspan x="0" y="0">p</tspan></text>
  <text class="cls-2" transform="translate(110.54 78.47) rotate(108.26)"><tspan x="0" y="0">e</tspan></text>
  <text class="cls-2" transform="translate(109.07 83.01) rotate(116.47)"><tspan x="0" y="0">d</tspan></text>
  <text class="cls-2" transform="translate(106.68 87.62) rotate(122.33)"><tspan x="0" y="0">i</tspan></text>
  <text class="cls-2" transform="translate(105.7 89.24) rotate(126.67)"><tspan x="0" y="0">t</tspan></text>
  <text class="cls-2" transform="translate(103.7 91.89) rotate(131.05)"><tspan x="0" y="0">i</tspan></text>
  <text class="cls-2" transform="translate(102.54 93.35) rotate(136.81)"><tspan x="0" y="0">o</tspan></text>
  <text class="cls-2" transform="translate(98.93 96.76) rotate(144.94)"><tspan x="0" y="0">n</tspan></text>
</svg>